<!-- Generator: Adobe Illustrator 21.1.0, SVG Export Plug-In  -->
<svg version="1.1"
	 xmlns="http://www.w3.org/2000/svg" xmlns:xlink="http://www.w3.org/1999/xlink" xmlns:a="http://ns.adobe.com/AdobeSVGViewerExtensions/3.0/"
	 x="0px" y="0px" width="170.73px" height="39.179px" viewBox="0 0 170.73 39.179"
	 style="enable-background:new 0 0 170.73 39.179;" xml:space="preserve">
<style type="text/css">
	.st0{fill:#91A7CF;}
</style>
<defs>
</defs>
<path class="st0" d="M6.206,30.681l-0.618,0.738c-0.58-0.461-1.12-0.672-1.779-0.672c-1.424,0-2.597,0.962-2.597,3.742
	c0,2.648,1.133,3.715,2.583,3.715c0.869,0,1.423-0.369,1.938-0.763l0.58,0.738c-0.501,0.514-1.358,1.001-2.556,1.001
	C1.581,39.179,0,37.532,0,34.488c0-3.083,1.687-4.69,3.742-4.69C4.863,29.798,5.495,30.114,6.206,30.681"/>
<path class="st0" d="M14.679,34.502c0,2.99-1.529,4.677-3.796,4.677c-2.252,0-3.794-1.633-3.794-4.664
	c0-2.99,1.554-4.717,3.794-4.717C13.137,29.797,14.679,31.445,14.679,34.502 M8.302,34.515c0,2.636,1.054,3.715,2.582,3.715
	c1.582,0,2.583-1.08,2.583-3.728s-0.988-3.755-2.583-3.755C9.33,30.747,8.302,31.853,8.302,34.515"/>
<path class="st0" d="M23.601,39.021l-0.342-4.151c-0.132-1.435-0.238-2.99-0.252-3.755l-2.041,6.865h-1.068l-2.134-6.878
	c-0.013,1.028-0.092,2.49-0.211,3.835l-0.316,4.084h-1.081l0.765-9.065h1.554l1.99,6.707l1.898-6.707h1.554l0.79,9.065H23.601z"/>
<path class="st0" d="M30.019,39.179c-2.055,0-3.11-1.265-3.11-3.044v-6.179h1.133v6.087c0,1.423,0.632,2.16,1.976,2.16
	c1.357,0,1.976-0.738,1.976-2.16v-6.087h1.159v6.179C33.154,37.914,32.048,39.179,30.019,39.179"/>
<path class="st0" d="M40.468,39.021l-3.822-7.813c0.067,0.725,0.159,1.766,0.159,3.439v4.374h-1.068v-9.065h1.488l3.847,7.826
	c-0.026-0.251-0.144-1.633-0.144-2.753v-5.073h1.067v9.065H40.468z"/>
<rect x="44.712" y="29.956" class="st0" width="1.146" height="9.065"/>
<path class="st0" d="M54.186,30.681l-0.618,0.738c-0.58-0.461-1.12-0.672-1.779-0.672c-1.424,0-2.597,0.962-2.597,3.742
	c0,2.648,1.133,3.715,2.583,3.715c0.869,0,1.423-0.369,1.938-0.763l0.58,0.738c-0.501,0.514-1.358,1.001-2.556,1.001
	c-2.175,0-3.756-1.647-3.756-4.69c0-3.083,1.687-4.69,3.742-4.69C52.843,29.798,53.475,30.114,54.186,30.681"/>
<path class="st0" d="M56.545,36.703l-0.712,2.318h-1.159l2.939-9.065h1.448l2.926,9.065h-1.212l-0.698-2.318H56.545z M58.311,30.904
	l-1.488,4.862h2.965L58.311,30.904z"/>
<path class="st0" d="M68.668,30.681l-0.618,0.738c-0.58-0.461-1.12-0.672-1.779-0.672c-1.424,0-2.597,0.962-2.597,3.742
	c0,2.648,1.133,3.715,2.583,3.715c0.869,0,1.423-0.369,1.938-0.763l0.58,0.738c-0.501,0.514-1.358,1.001-2.556,1.001
	c-2.175,0-3.756-1.647-3.756-4.69c0-3.083,1.687-4.69,3.742-4.69C67.325,29.798,67.957,30.114,68.668,30.681"/>
<rect x="70.408" y="29.956" class="st0" width="1.146" height="9.065"/>
<path class="st0" d="M81.267,34.502c0,2.99-1.529,4.677-3.796,4.677c-2.252,0-3.794-1.633-3.794-4.664
	c0-2.99,1.554-4.717,3.794-4.717C79.725,29.798,81.267,31.445,81.267,34.502 M74.889,34.515c0,2.634,1.054,3.715,2.582,3.715
	c1.582,0,2.583-1.081,2.583-3.728c0-2.648-0.988-3.756-2.583-3.756C75.917,30.746,74.889,31.854,74.889,34.515 M76.272,29.06
	l-0.29-0.592l2.597-1.384l0.487,0.948L76.272,29.06z"/>
<path class="st0" d="M88.119,39.021l-3.822-7.813c0.067,0.725,0.159,1.766,0.159,3.439v4.374h-1.068v-9.065h1.488l3.847,7.826
	c-0.026-0.251-0.144-1.633-0.144-2.753v-5.073h1.067v9.065H88.119z"/>
<polygon class="st0" points="97.027,30.878 97.027,33.935 100.124,33.935 100.124,34.857 97.027,34.857 97.027,38.098 
	100.822,38.098 100.822,39.02 95.894,39.02 95.894,29.957 100.729,29.957 100.598,30.878 "/>
<path class="st0" d="M107.819,30.839l-0.645,0.725c-0.659-0.58-1.291-0.817-2.056-0.817c-0.961,0-1.686,0.461-1.686,1.344
	c0,0.803,0.382,1.186,2.016,1.686c1.489,0.448,2.661,1.028,2.661,2.728c0,1.581-1.186,2.674-3.175,2.674
	c-1.291,0-2.293-0.434-3.044-1.159l0.672-0.738c0.62,0.593,1.358,0.948,2.359,0.948c1.106,0,2.002-0.567,2.002-1.687
	c0-0.934-0.447-1.343-2.002-1.818c-1.78-0.54-2.661-1.212-2.661-2.595c0-1.358,1.159-2.332,2.805-2.332
	C106.305,29.798,107.081,30.167,107.819,30.839"/>
<polygon class="st0" points="112.498,30.931 112.498,39.02 111.364,39.02 111.364,30.931 108.756,30.931 108.756,29.957 
	115.173,29.957 115.04,30.931 "/>
<path class="st0" d="M117.795,35.121v3.9h-1.133v-9.065h2.332c2.24,0,3.399,0.87,3.399,2.543c0,1.291-0.685,2.042-1.976,2.424
	l2.451,4.098h-1.356l-2.214-3.9H117.795z M121.182,32.499c0-1.146-0.658-1.647-2.2-1.647h-1.186v3.386h1.331
	C120.431,34.238,121.182,33.751,121.182,32.499"/>
<path class="st0" d="M125.201,36.703l-0.712,2.318h-1.159l2.939-9.065h1.448l2.926,9.065h-1.212l-0.698-2.318H125.201z
	 M126.967,30.904l-1.488,4.862h2.965L126.967,30.904z"/>
<polygon class="st0" points="134.031,30.931 134.031,39.02 132.896,39.02 132.896,30.931 130.289,30.931 130.289,29.957 
	136.705,29.957 136.573,30.931 "/>
<path class="st0" d="M139.327,30.878v3.057h3.097v0.922h-3.097v3.241h3.796v0.923h-4.928v-9.065h4.836l-0.131,0.923H139.327z
	 M139.434,29.06l-0.29-0.592l2.596-1.384l0.488,0.948L139.434,29.06z"/>
<path class="st0" d="M151.147,30.773l-0.672,0.698c-0.632-0.5-1.186-0.724-2.002-0.724c-1.331,0-2.675,1.014-2.675,3.728
	c0,2.648,0.937,3.755,2.57,3.755c0.645,0,1.238-0.132,1.766-0.434v-2.833h-1.647l-0.132-0.936h2.912v4.363
	c-0.816,0.487-1.753,0.789-2.978,0.789c-2.24,0-3.702-1.568-3.702-4.703c0-3.07,1.858-4.678,3.86-4.678
	C149.646,29.797,150.383,30.14,151.147,30.773"/>
<rect x="153.455" y="29.956" class="st0" width="1.146" height="9.065"/>
<path class="st0" d="M162.928,30.681l-0.618,0.738c-0.58-0.461-1.12-0.672-1.779-0.672c-1.424,0-2.597,0.962-2.597,3.742
	c0,2.648,1.133,3.715,2.583,3.715c0.869,0,1.423-0.369,1.938-0.763l0.58,0.738c-0.501,0.514-1.358,1.001-2.556,1.001
	c-2.175,0-3.756-1.647-3.756-4.69c0-3.083,1.687-4.69,3.742-4.69C161.584,29.798,162.217,30.114,162.928,30.681"/>
<path class="st0" d="M165.288,36.703l-0.712,2.318h-1.159l2.939-9.065h1.448l2.926,9.065h-1.212l-0.698-2.318H165.288z
	 M167.053,30.904l-1.488,4.862h2.965L167.053,30.904z"/>
<polygon class="st0" points="155.016,0.736 155.016,20.793 169,20.793 169,17.171 158.804,17.171 158.804,12.323 165.657,12.323 
	165.657,8.814 158.748,8.814 158.748,4.189 168.332,4.189 168.332,0.511 155.016,0.511 "/>
<path class="st0" d="M17.06,15.758c-1.168,1.238-2.767,2.003-4.535,2.003c-3.57,0-6.465-3.116-6.465-6.959
	c0-3.844,2.895-6.96,6.465-6.96c1.72,0,3.28,0.73,4.437,1.912l2.544-2.501c-1.84-1.851-4.363-2.997-7.149-2.997
	c-5.63,0-10.196,4.666-10.196,10.419c0,5.755,4.566,10.419,10.196,10.419c2.829,0,5.391-1.181,7.235-3.081L17.06,15.758z"/>
<path class="st0" d="M131.104,0.522v12.954c-0.084,3.341-3.009,4.066-3.009,4.066h-0.06h-2.142h-0.059c0,0-2.926-0.725-3.009-4.066
	V0.522h-3.845v13.707c0,0,0.531,6.123,6.079,6.751v0.017h0.106h3.599h0.106V20.98c5.549-0.628,6.078-6.751,6.078-6.751V0.522
	H131.104z"/>
<polygon class="st0" points="31.185,1.258 31.185,21.313 45.502,21.313 45.502,17.807 35.194,17.807 35.194,1.258 "/>
<rect x="60.185" y="1.259" class="st0" width="4.011" height="20.055"/>
<path class="st0" d="M100.585,18.647c2.229-1.951,3.642-4.811,3.642-8.004C104.227,4.766,99.465,0,93.587,0
	c-5.878,0-10.641,4.766-10.641,10.643s4.764,10.639,10.641,10.639c1.339,0,2.616-0.257,3.797-0.709
	c3.018,4.055,6.611,1.825,6.611,1.825v-3.122C102.695,20.007,101.496,19.448,100.585,18.647 M93.587,3.623
	c3.693,0,6.686,3.144,6.686,7.021c0,1.934-0.747,3.688-1.953,4.956c-2.591-3.923-4.988-3.575-4.988-3.575
	c-3.596,0.082-4.577,2.332-4.852,3.146c-0.985-1.222-1.58-2.8-1.58-4.527C86.901,6.767,89.894,3.623,93.587,3.623 M90.089,16.62
	c0.915-2.029,2.426-2.133,2.426-2.133c2.823,0.128,2.5,1.47,3.225,2.798c-0.676,0.242-1.399,0.38-2.153,0.38
	C92.302,17.664,91.107,17.276,90.089,16.62"/>
</svg>