<!-- Generator: Adobe Illustrator 21.1.0, SVG Export Plug-In  -->
<svg version="1.1"
	 xmlns="http://www.w3.org/2000/svg" xmlns:xlink="http://www.w3.org/1999/xlink" xmlns:a="http://ns.adobe.com/AdobeSVGViewerExtensions/3.0/"
	 x="0px" y="0px" width="304.234px" height="282.247px" viewBox="0 0 304.234 282.247"
	 style="enable-background:new 0 0 304.234 282.247;" xml:space="preserve">
<style type="text/css">
	.st0{fill:#F8CBC9;}
	.st1{fill:#4C5E76;}
</style>
<defs>
</defs>
<path class="st0" d="M247.998,25.785c0,0,66,4,55,44s-30,47-30,47"/>
<path class="st0" d="M122.998,8.785c0,0-155-22-117,111"/>
<path class="st0" d="M11.998,187.785c0,0,15,128,148,86c0,0,20-5,13-24"/>
<path class="st1" d="M104.998,15.785c0,0-106,25-101,139s162,108,162,108s73-3,45-38c0,0-107,8-113-38s5-115,62-126c0,0,82-3,44,59
	l-23,31c0,0-22,43,44,31c0,0,71,7,49-111C273.998,70.785,247.998-40.215,104.998,15.785z"/>
</svg>