<!-- Generator: Adobe Illustrator 21.1.0, SVG Export Plug-In  -->
<svg version="1.1"
	 xmlns="http://www.w3.org/2000/svg" xmlns:xlink="http://www.w3.org/1999/xlink" xmlns:a="http://ns.adobe.com/AdobeSVGViewerExtensions/3.0/"
	 x="0px" y="0px" width="245.759px" height="216.014px" viewBox="0 0 245.759 216.014"
	 style="enable-background:new 0 0 245.759 216.014;" xml:space="preserve">
<style type="text/css">
	.st0{fill:#F8CBC9;}
	.st1{fill:#4C5E76;}
</style>
<defs>
</defs>
<path class="st0" d="M218.121,107.627c0,0,44-22,6-60S110.986,9.539,110.986,9.539"/>
<path class="st0" d="M89.993,19.134c0,0-36.507-16.152-60.436-1.028c-4.318,2.729-8.226,6.477-11.437,11.521c-21,33,15,13-10,50
	c-4.562,6.752-6.427,11.972-6.427,15.994c0,18.021,37.427,12.006,37.427,12.006"/>
<path class="st0" d="M206.121,166.627c0,0-15.255,80.65-120.128,35.825"/>
<path class="st1" d="M91.916,167.423c9.404-13.914,18.031-26.738,26.72-39.521c13.193-19.409,26.491-38.746,39.572-58.23
	c1.774-2.642,2.55-5.954,4.127-9.777c-28.089,0-54.474,0-81.109,0c0,2.316,0,4.239,0,6.742c22.866,0,45.592,0,69.658,0
	c-3.329,5.064-5.948,9.161-8.678,13.183c-19.446,28.648-38.954,57.255-58.296,85.973c-1.426,2.117-1.703,5.007-2.823,8.499
	c2.897,0,4.507,0,6.117,0c21.159,0,42.319,0.102,63.475-0.123c2.73-0.029,5.826-1.207,8.095-2.792
	c10.28-7.184,21.13-12.29,34.013-9.655c4.414,0.903,8.554,3.141,12.819,4.769c0.002,0.591,0.003,1.183,0.005,1.774
	c-3.772,1.423-7.571,2.776-11.303,4.297c-1.806,0.736-3.965,1.376-5.144,2.759c-10.738,12.588-24.81,19.534-40.433,23.33
	c-12.011,2.918-23.982,4.717-35.903,5.354c-23.982,1.282-47.762-2.134-71.258-10.586c-2.793-1.005-5.783-2.201-7.887-4.162
	c-1.961-1.827-4.019-4.777-4.052-7.26c-0.408-30.47-0.471-60.946-0.574-91.42c-0.021-6.302,0.047-12.61,0.32-18.905
	c0.082-1.889,0.489-4.145,1.605-5.551C49.215,43.152,69.023,21.857,95.918,8.749c14.953-7.288,30.505-11.51,47.286-6.692
	c11.559,3.319,20.702,10.133,27.228,19.972c11.549,17.411,23.81,34.12,40.044,47.565c1.242,1.029,2.385,3.023,2.39,4.572
	c0.105,28.143,0.029,56.286-0.022,84.43c-0.001,0.317-0.177,0.633-0.372,1.288c-0.871-0.224-1.849-0.272-2.611-0.702
	c-18.495-10.448-36.292-7.766-53.117,3.574c-5.164,3.481-10.087,4.871-16.133,4.763C124.828,167.234,109.035,167.423,91.916,167.423
	z"/>
<path class="st1" d="M222.111,157.034c0-25.202,0-50.404,0-76.804c9.113,10.253,18.254,19.09,22.078,31.647
	c3.522,11.566,0.967,22.248-6.182,31.58c-4.067,5.309-9.327,9.704-14.049,14.511C223.342,157.656,222.727,157.345,222.111,157.034z"
	/>
<path class="st1" d="M20.198,83.768c0,28.39,0,56.78,0,85.171c-0.447,0.089-0.894,0.179-1.341,0.268
	c-3.581-12.107-13.712-21.23-14.486-34.729c-0.735-12.804,2-24.763,7.11-36.29c2.242-5.059,5.04-9.872,7.585-14.797
	C19.443,83.517,19.821,83.642,20.198,83.768z"/>
<path class="st1" d="M149.121,198.627c0,0,69.806-14,93.403-62.5"/>
<path class="st1" d="M222.121,80.627c0,0,6.034,5.015-28.483-27.492l-4.517,122.492l7-3l10-5l15.991-10.593l7.342-7.074l8.554-6.504
	"/>
<path class="st1" d="M37.121,191.627c0,0-34-18-37-57s51-92,51-92"/>
<g>
	<g>
		<path class="st1" d="M177.621,158.627c2-0.167,4-0.333,6-0.5c1.91-0.159,1.927-3.161,0-3c-2,0.167-4,0.333-6,0.5
			C175.71,155.786,175.693,158.788,177.621,158.627L177.621,158.627z"/>
	</g>
</g>
<g>
	<g>
		<path class="st1" d="M176.227,157.205c-2.048,0.278-4.095,0.556-6.143,0.833c-1.99,0.27-4.518,0.026-6.259,0.306
			c-0.615-0.615-1.23-1.23-1.845-1.845c-1.768,5.491-0.373,9.451,5.798,9.572c5.739,0.112,11.958-0.61,15.786-5.335
			c0.915-1.129,0.088-2.88-1.459-2.507c-10.817,2.609-21.226,6.367-31.232,11.229c-1.744,0.847-0.22,3.399,1.514,2.59
			c11.817-5.51,23.834-10.903,37.076-11.316c-0.354-0.854-0.707-1.707-1.061-2.561c-6.736,7.38-15.688,11.822-25.661,12.577
			c0.482,0.633,0.964,1.266,1.446,1.899c1.323-6.036,6.134-9.731,11.373-12.454c3.207-1.667,14.736-7.487,18.366-4.721
			c-0.179-0.684-0.359-1.368-0.538-2.052c-2.16,3.19-5.228,5.582-8.982,6.592c-1.224,0.329-4.182,1.411-4.216-0.703
			c-0.032-2.003,5.304-4.057,6.505-4.411c1.476-0.435,4.897-1.996,5.219,0.128c0.121,0.8-3.458,2.85-3.949,3.171
			c-3.118,2.039-6.62,3.361-10.296,3.933c-1.478,0.23-2.958,0.38-4.456,0.326c-2.68-0.096-6.433-1.256-7.318-4.303
			c-0.918-3.158,7.653-10.922,7.759-4.349c0.119,7.368-7.547,12.943-13.342,15.878c-1.723,0.872-0.206,3.461,1.514,2.59
			c7.018-3.553,15.862-10.812,14.766-19.759c-1.094-8.93-10.761-2.656-12.943,2.243c-3.856,8.659,6.356,11.159,12.679,10.584
			c4.915-0.447,9.737-2.185,13.806-4.979c2.683-1.843,6.457-4.281,5.81-7.873c-0.089-0.493-0.579-0.929-1.048-1.048
			c-4.269-1.079-10.039,0.197-13.668,2.673c-2.018,1.377-6.202,5.305-4.294,8.133c1.649,2.444,6.67,1.162,8.936,0.447
			c4.269-1.347,7.621-4.085,10.11-7.76c0.493-0.729,0.071-1.588-0.538-2.052c-2.286-1.742-5.132-0.864-7.742-0.277
			c-4.199,0.944-8.279,2.393-12.158,4.253c-6.47,3.103-12.633,7.632-14.246,14.991c-0.193,0.882,0.422,1.976,1.446,1.899
			c10.771-0.815,20.491-5.467,27.782-13.456c0.839-0.919,0.296-2.603-1.061-2.561c-13.781,0.429-26.288,5.989-38.59,11.725
			c0.505,0.863,1.009,1.727,1.514,2.59c9.776-4.75,19.953-8.379,30.515-10.926c-0.486-0.836-0.973-1.671-1.459-2.507
			c-2.494,3.078-5.803,4.013-9.667,4.337c-1.219,0.102-2.799,0.389-3.997,0.119c-4.096-0.922-3.92-2.623-2.905-5.774
			c0.384-1.192-0.794-2.014-1.845-1.845c-2.47,0.397-3.325,3.461-1.473,5.218c1.303,1.236,3.136,0.981,4.74,0.884
			c3.559-0.217,7.199-0.976,10.73-1.455C178.928,159.84,178.118,156.949,176.227,157.205L176.227,157.205z"/>
	</g>
</g>
<path class="st1" d="M77.621,115.127c0-33.689,44.811-65.5,78.5-65.5s34.845,32.941,43.5,65.5c10.5,39.5-17.811,68.5-51.5,68.5
	S77.621,148.816,77.621,115.127z"/>
<path class="st1" d="M157.121,162.627l-26,21h-37l-19-8l-5-8l-6-13l-8-28l4-17v-29l4-17c0,0,0-4,19-14s6-12,18-10s10-1,10-1l15,11
	l11.5,18.5"/>
<path class="st0" d="M189.121,175.627"/>
</svg>