<!-- Generator: Adobe Illustrator 21.1.0, SVG Export Plug-In  -->
<svg version="1.1"
	 xmlns="http://www.w3.org/2000/svg" xmlns:xlink="http://www.w3.org/1999/xlink" xmlns:a="http://ns.adobe.com/AdobeSVGViewerExtensions/3.0/"
	 x="0px" y="0px" width="279.882px" height="294.134px" viewBox="0 0 279.882 294.134"
	 style="enable-background:new 0 0 279.882 294.134;" xml:space="preserve">
<style type="text/css">
	.st0{fill:#F8CBC9;}
	.st1{fill:#4C5E76;}
</style>
<defs>
</defs>
<path class="st0" d="M74.802,24.593c0,0,17.67-14.135,119.766-18.419c71.307-2.992,24.589,92.721,24.589,92.721"/>
<path class="st0" d="M128.097,20.768c0,0-200.992,66.142-99.442,166.334"/>
<path class="st0" d="M61.406,186.375c0,0,57.476,134.787,134.476,87.787s75-57,55-74s18-40,18-40"/>
<path class="st1" d="M279.882,148.162c0,72.349-75,62-131,131c-45.592,56.176-131-58.651-131-131s93.777-193.039,131-131
	C196.882,97.162,279.882,75.813,279.882,148.162z"/>
</svg>